<svg xmlns="http://www.w3.org/2000/svg" xmlns:xlink="http://www.w3.org/1999/xlink" viewBox="0 0 208 55">
<style type="text/css">
	.st0{fill:#2C3149;}
	.st1{fill:#0157FF;}
	.st2{enable-background:new    ;}
</style><g transform="translate(63)"><path class="st0" d="M8,0.5v30.2c0,1.5,1.2,2.7,2.7,2.7h15.2v6.9h-18c-4.1,0-7.3-3.3-7.3-7.3V0.5L8,0.5z"></path><path class="st0" d="M29,12.2h6.9v28.3H29L29,12.2z"></path><path class="st0" d="M34,7.3h-3.3c-0.9,0-1.8-0.8-1.8-1.8V2.3c0-1,0.8-1.8,1.8-1.8H34c0.9,0,1.8,0.8,1.8,1.8v3.1 C35.9,6.5,35.1,7.3,34,7.3z"></path><path class="st0" d="M109.1,7.3h-3.3c-0.9,0-1.8-0.8-1.8-1.8V2.3c0-1,0.8-1.8,1.8-1.8h3.3c0.9,0,1.8,0.8,1.8,1.8v3.1 C111,6.5,110.2,7.3,109.1,7.3z"></path><path class="st0" d="M62.2,52.2V37.1c-2,3.1-6.4,3.9-9.4,3.9c-8.9,0-14.1-6.5-14.1-14.7c0-8.3,5.7-14.7,14.4-14.7 c3.1,0,6.9,1.4,9.1,4.5l0.4-3.9h6.5V52L62.2,52.2z M61.5,26.4c0-4.3-3-8-8-8s-8,3.5-8,8s3.3,8,8,8S61.5,30.7,61.5,26.4z"></path><path class="st0" d="M79.4,12.2v14.7c0,4.2,2.3,7.5,6.8,7.5c4.2,0,7.2-3.5,7.2-7.9V12.2h6.9v28.1H94l-0.4-3.8 c-2.8,2.9-5.6,4.2-9.5,4.2c-6.6,0-11.7-5-11.7-13.9V12.2L79.4,12.2z"></path><path class="st0" d="M104.1,12.2v28.3h6.9V12.2L104.1,12.2z"></path><path class="st0" d="M144.7,0.5v39.8h-6.5l-0.4-3.9c-2.2,3.4-5.7,4.5-9.1,4.5c-8.3,0-14.5-5.4-14.5-14.7 c0-9.6,6.1-14.7,14.2-14.7c3,0,7.6,1.6,9.2,4.5V0.5L144.7,0.5z M121.3,26.4c0,4.9,3.5,8.3,8,8.3c4.3,0,8.1-3.1,8.1-8.3 c0-4.9-3.8-8.2-8.1-8.2C124.8,18.1,121.3,21.2,121.3,26.4z"></path></g><path class="st1" d="M15.8,1c-1,0-1.8,0.8-1.8,1.8v7.6c0,1.5,1.2,2.7,2.7,2.7h5.5c1.5,0,2.7,1.2,2.7,2.7v8.5 c0,1.5,1.2,2.7,2.7,2.7h8.4c1.5,0,2.7,1.2,2.7,2.7v5.5c0,1.5,1.2,2.7,2.7,2.7h7.7c1,0,1.8-0.8,1.8-1.8V2.8c0-1-0.8-1.8-1.8-1.8 L15.8,1z"></path><path class="st1" d="M14.3,35.4V17.8c0-1.5-1.2-2.8-2.7-2.8H1.8c-1,0-1.8,0.8-1.8,1.8v33.4c0,1,0.8,1.8,1.8,1.8h33.5 c1,0,1.8-0.8,1.8-1.8v-9.1c0-1.5-1.2-2.8-2.7-2.8H17.1C15.5,38.3,14.3,37,14.3,35.4z"></path>
</svg>
